#define ff2_cursor_width 32
#define ff2_cursor_height 32
static unsigned char ff2_cursor_bits[] = {
   0x00, 0x00, 0x00, 0x00, 0x00, 0x00, 0x00, 0x00, 0x00, 0x00, 0x00, 0x00,
   0x20, 0x00, 0x00, 0x00, 0x70, 0x00, 0x00, 0x00, 0xf0, 0x01, 0x00, 0x00,
   0xe0, 0x07, 0x00, 0x00, 0xf0, 0x1f, 0x00, 0x00, 0xe0, 0x7f, 0x00, 0x00,
   0xe0, 0xff, 0x00, 0x00, 0xe0, 0xff, 0x03, 0x00, 0xe0, 0xff, 0x0f, 0x00,
   0xc0, 0xff, 0x3f, 0x00, 0xc0, 0xff, 0xff, 0x00, 0xc0, 0xff, 0xff, 0x03,
   0xc0, 0xff, 0xff, 0x07, 0xc0, 0xff, 0xff, 0x1f, 0x80, 0xff, 0xff, 0x3f,
   0x80, 0x7f, 0xff, 0x1f, 0x80, 0x7f, 0xf8, 0x07, 0x80, 0x7f, 0xe0, 0x01,
   0x80, 0x7f, 0x00, 0x00, 0x00, 0x7f, 0x00, 0x00, 0x00, 0x7f, 0x00, 0x00,
   0x00, 0xff, 0x00, 0x00, 0x00, 0xff, 0x00, 0x00, 0x00, 0x3e, 0x00, 0x00,
   0x00, 0x1e, 0x00, 0x00, 0x00, 0x06, 0x00, 0x00, 0x00, 0x00, 0x00, 0x00,
   0x00, 0x00, 0x00, 0x00, 0x00, 0x00, 0x00, 0x00 };
